<svg id="Icons" height="512" viewBox="0 0 74 74" width="512" xmlns="http://www.w3.org/2000/svg">
<path d="m3 20.01a1 1 0 0 1 -1-1v-2.97a1 1 0 0 1 2 0v2.97a1 1 0 0 1 -1 1z"/>
<path d="m67 56h-60a5.006 5.006 0 0 1 -5-5v-15.08a1 1 0 0 1 2 0v15.08a3 3 0 0 0 3 3h60a3 3 0 0 0 3-3v-43.99a3 3 0 0 0 -3-3h-60a3 3 0 0 0 -3 3v2.03a1 1 0 0 1 -2 0v-2.03a5.006 5.006 0 0 1 5-5h60a5.006 5.006 0 0 1 5 5v43.99a5.006 5.006 0 0 1 -5 5z"/><path d="m3 29.92a1 1 0 0 1 -1-1v-2.91a1 1 0 0 1 2 0v2.91a1 1 0 0 1 -1 1z"/><path d="m71 45.018h-68a1 1 0 0 1 0-2h68a1 1 0 0 1 0 2z"/><path d="m14.25 50.258h-2.625a1 1 0 0 1 0-2h2.625a1 1 0 0 1 0 2z"/><path d="m48.417 63.911h-22.834a1 1 0 0 1 -1-1v-7.911a1 1 0 0 1 1-1h22.834a1 1 0 0 1 1 1v7.911a1 1 0 0 1 -1 1zm-21.834-2h20.834v-5.911h-20.834z"/><path d="m53.562 72.008h-33.124a1 1 0 0 1 -1-1v-3.9a5.2 5.2 0 0 1 5.193-5.194h24.738a5.2 5.2 0 0 1 5.193 5.194v3.9a1 1 0 0 1 -1 1zm-32.124-2h31.124v-2.9a3.2 3.2 0 0 0 -3.193-3.194h-24.738a3.2 3.2 0 0 0 -3.193 3.194z"/><path d="m11.924 18.426h1.263v4.331h.028a2.342 2.342 0 0 1 .9-.889 2.6 2.6 0 0 1 1.291-.358c.932 0 2.424.573 2.424 2.969v4.13h-1.258v-3.987c0-1.119-.416-2.065-1.607-2.065a1.811 1.811 0 0 0 -1.692 1.262 1.52 1.52 0 0 0 -.086.6v4.188h-1.263z"/><path d="m17.834 28.734h-1.263a.125.125 0 0 1 -.125-.125v-3.987c0-.885-.257-1.94-1.481-1.94a1.683 1.683 0 0 0 -1.574 1.176 1.44 1.44 0 0 0 -.079.563v4.188a.125.125 0 0 1 -.125.125h-1.263a.125.125 0 0 1 -.125-.125v-10.183a.125.125 0 0 1 .125-.125h1.263a.125.125 0 0 1 .125.125v3.964a2.526 2.526 0 0 1 .746-.631 2.725 2.725 0 0 1 1.352-.374c1.176 0 2.549.81 2.549 3.094v4.13a.125.125 0 0 1 -.125.125zm-1.138-.25h1.013v-4.005c0-2.707-1.915-2.844-2.3-2.844a2.47 2.47 0 0 0 -1.229.342 2.235 2.235 0 0 0 -.857.841c-.055.1-.262.053-.262-.061v-4.206h-1.012v9.933h1.013v-4.063a1.633 1.633 0 0 1 .1-.65 1.923 1.923 0 0 1 1.808-1.339c1.117 0 1.731.777 1.731 2.19z"/><path d="m22.352 19.674v1.993h1.808v.961h-1.808v3.744c0 .86.244 1.348.947 1.348a2.815 2.815 0 0 0 .732-.086l.057.947a3.1 3.1 0 0 1 -1.119.172 1.751 1.751 0 0 1 -1.363-.531 2.575 2.575 0 0 1 -.487-1.807v-3.787h-1.076v-.961h1.076v-1.667z"/><path d="m22.969 28.878a1.867 1.867 0 0 1 -1.457-.573 2.656 2.656 0 0 1 -.518-1.89v-3.662h-.951a.125.125 0 0 1 -.125-.125v-.961a.126.126 0 0 1 .125-.125h.951v-1.542a.125.125 0 0 1 .092-.121l1.234-.329a.12.12 0 0 1 .109.022.126.126 0 0 1 .049.1v1.868h1.682a.126.126 0 0 1 .125.125v.961a.125.125 0 0 1 -.125.125h-1.682v3.619c0 .857.245 1.223.821 1.223a2.754 2.754 0 0 0 .7-.081.126.126 0 0 1 .105.019.128.128 0 0 1 .052.094l.057.947a.126.126 0 0 1 -.078.123 3.249 3.249 0 0 1 -1.166.183zm-2.8-6.375h.951a.125.125 0 0 1 .125.125v3.787a2.438 2.438 0 0 0 .452 1.721 1.63 1.63 0 0 0 1.273.492 3.246 3.246 0 0 0 .989-.132l-.043-.707a3.188 3.188 0 0 1 -.616.056c-.96 0-1.071-.841-1.071-1.473v-3.744a.125.125 0 0 1 .125-.125h1.682v-.711h-1.683a.125.125 0 0 1 -.125-.125v-1.831l-.984.263v1.568a.125.125 0 0 1 -.125.125h-.951z"/><path d="m28.1 19.674v1.993h1.81v.961h-1.81v3.744c0 .86.244 1.348.947 1.348a2.806 2.806 0 0 0 .731-.086l.058.947a3.108 3.108 0 0 1 -1.119.172 1.751 1.751 0 0 1 -1.363-.531 2.57 2.57 0 0 1 -.488-1.807v-3.787h-1.073v-.961h1.076v-1.667z"/><path d="m28.72 28.878a1.864 1.864 0 0 1 -1.457-.573 2.651 2.651 0 0 1 -.519-1.89v-3.662h-.951a.126.126 0 0 1 -.125-.125v-.961a.126.126 0 0 1 .125-.125h.951v-1.542a.125.125 0 0 1 .093-.121l1.234-.329a.118.118 0 0 1 .108.022.123.123 0 0 1 .049.1v1.868h1.683a.126.126 0 0 1 .125.125v.961a.126.126 0 0 1 -.125.125h-1.683v3.619c0 .857.246 1.223.822 1.223a2.722 2.722 0 0 0 .7-.081.125.125 0 0 1 .158.112l.057.947a.125.125 0 0 1 -.077.124 3.245 3.245 0 0 1 -1.168.183zm-2.8-6.375h.951a.125.125 0 0 1 .125.125v3.787a2.438 2.438 0 0 0 .453 1.721 1.627 1.627 0 0 0 1.273.492 3.239 3.239 0 0 0 .988-.132l-.043-.706a3.28 3.28 0 0 1 -.615.055c-.961 0-1.072-.841-1.072-1.473v-3.744a.125.125 0 0 1 .12-.128h1.683v-.711h-1.683a.125.125 0 0 1 -.125-.125v-1.828l-.984.263v1.568a.125.125 0 0 1 -.125.125h-.951z"/><path d="m32.332 23.934c0-.89-.028-1.607-.057-2.267h1.133l.058 1.19h.028a2.729 2.729 0 0 1 2.467-1.347c1.678 0 2.941 1.419 2.941 3.528 0 2.5-1.521 3.729-3.156 3.729a2.435 2.435 0 0 1 -2.137-1.09h-.029v3.772h-1.248zm1.248 1.85a2.816 2.816 0 0 0 .058.516 1.946 1.946 0 0 0 1.893 1.477c1.334 0 2.108-1.089 2.108-2.682 0-1.391-.731-2.582-2.065-2.582a2.014 2.014 0 0 0 -1.908 1.564 2.086 2.086 0 0 0 -.086.516z"/><path d="m33.581 31.574h-1.248a.125.125 0 0 1 -.125-.125v-7.515c0-.862-.027-1.561-.058-2.261a.129.129 0 0 1 .035-.092.126.126 0 0 1 .09-.039h1.133a.125.125 0 0 1 .125.12l.042.856a2.863 2.863 0 0 1 2.386-1.133c1.776 0 3.066 1.536 3.066 3.653 0 2.662-1.648 3.854-3.281 3.854a2.64 2.64 0 0 1 -2.04-.868v3.425a.126.126 0 0 1 -.125.125zm-1.123-.25h1v-3.647a.125.125 0 0 1 .125-.125.18.18 0 0 1 .135.06 2.31 2.31 0 0 0 2.03 1.03c1.509 0 3.031-1.114 3.031-3.6 0-2-1.158-3.4-2.816-3.4a2.594 2.594 0 0 0 -2.363 1.28c-.059.1-.256.052-.261-.059l-.052-1.071h-.883c.028.66.052 1.329.052 2.142zm3.073-3.424a2.065 2.065 0 0 1 -2.014-1.57 2.952 2.952 0 0 1 -.061-.548v-1.189a2.189 2.189 0 0 1 .089-.549 2.14 2.14 0 0 1 2.029-1.655c1.29 0 2.191 1.112 2.191 2.706 0 1.705-.877 2.805-2.234 2.805zm.043-5.263a1.89 1.89 0 0 0 -1.787 1.469 1.983 1.983 0 0 0 -.081.485v1.191a2.683 2.683 0 0 0 .055.493 1.816 1.816 0 0 0 1.77 1.375c1.223 0 1.984-.98 1.984-2.557 0-1.22-.6-2.454-1.941-2.454z"/><path d="m41.326 27.318a3.308 3.308 0 0 0 1.665.5c.918 0 1.347-.459 1.347-1.033 0-.6-.358-.933-1.29-1.277-1.248-.444-1.836-1.133-1.836-1.965a2.141 2.141 0 0 1 2.395-2.036 3.47 3.47 0 0 1 1.707.429l-.314.921a2.708 2.708 0 0 0 -1.419-.4c-.747 0-1.162.431-1.162.947 0 .573.415.831 1.319 1.176 1.205.459 1.822 1.062 1.822 2.094 0 1.219-.947 2.08-2.6 2.08a3.97 3.97 0 0 1 -1.95-.473z"/><path d="m42.961 28.878a4.105 4.105 0 0 1 -2.014-.49.125.125 0 0 1 -.055-.147l.316-.962a.124.124 0 0 1 .187-.065 3.175 3.175 0 0 0 1.6.481c.765 0 1.222-.339 1.222-.907 0-.533-.3-.826-1.209-1.16-1.584-.564-1.917-1.444-1.917-2.082a2.258 2.258 0 0 1 2.52-2.161 3.62 3.62 0 0 1 1.771.447.125.125 0 0 1 .055.148l-.316.918a.125.125 0 0 1 -.077.077.122.122 0 0 1 -.108-.012 2.556 2.556 0 0 0 -1.353-.382c-.621 0-1.037.33-1.037.822 0 .455.277.693 1.239 1.059 1.315.5 1.9 1.183 1.9 2.211-.002 1.339-1.071 2.205-2.724 2.205zm-1.8-.657a3.925 3.925 0 0 0 1.8.407c1.525 0 2.472-.749 2.472-1.955 0-.921-.521-1.512-1.741-1.977-.949-.362-1.4-.648-1.4-1.293a1.142 1.142 0 0 1 1.287-1.072 2.831 2.831 0 0 1 1.351.341l.232-.672a3.418 3.418 0 0 0 -1.555-.363 2.021 2.021 0 0 0 -2.27 1.911c0 .8.606 1.439 1.753 1.847.848.314 1.373.656 1.373 1.395 0 .56-.386 1.157-1.472 1.157a3.48 3.48 0 0 1 -1.595-.438z"/><path d="m48.923 22.815a.855.855 0 1 1 1.707 0 .854.854 0 1 1 -1.707 0zm0 5.063a.855.855 0 1 1 1.707 0 .854.854 0 1 1 -1.707 0z"/><path d="m49.769 28.892a.96.96 0 0 1 -.971-1.014.98.98 0 1 1 1.957 0 .958.958 0 0 1 -.986 1.014zm.015-1.792a.772.772 0 0 0 -.015 1.542.71.71 0 0 0 .736-.764.718.718 0 0 0 -.721-.778zm-.015-3.271a.961.961 0 0 1 -.971-1.014.975.975 0 0 1 .986-1.029 1.022 1.022 0 0 1 -.015 2.043zm.015-1.793a.773.773 0 0 0 -.015 1.543.71.71 0 0 0 .736-.764.719.719 0 0 0 -.721-.779z"/><path d="m56.968 29.183 4-10.4h1.106l-4.017 10.4z"/><path d="m58.059 29.308h-1.091a.124.124 0 0 1 -.1-.054.123.123 0 0 1 -.014-.116l4-10.4a.126.126 0 0 1 .117-.08h1.106a.128.128 0 0 1 .1.054.126.126 0 0 1 .013.116l-4.016 10.4a.126.126 0 0 1 -.115.08zm-.909-.25h.823l3.921-10.149h-.838z"/><path d="m53.175 29.183 4-10.4h1.106l-4.017 10.4z"/><path d="m54.267 29.308h-1.092a.124.124 0 0 1 -.116-.17l4-10.4a.124.124 0 0 1 .116-.08h1.106a.128.128 0 0 1 .1.054.126.126 0 0 1 .013.116l-4.016 10.4a.125.125 0 0 1 -.111.08zm-.91-.25h.824l3.919-10.149h-.838z"/></svg>